<svg width="60" height="78" viewBox="0 0 60 78" fill="none" xmlns="http://www.w3.org/2000/svg">
<path d="M21.3542 43.3208L24.6 32.5708L16.0583 26.3H26.7333L30 15.4375L33.2708 26.3H43.9417L35.375 32.5667L38.625 43.3208L30 36.6458L21.3542 43.3208ZM9.16668 77.425V49.9667C6.52779 47.3694 4.47918 44.3278 3.02084 40.8417C1.56251 37.3639 0.833344 33.6389 0.833344 29.6667C0.833344 21.5361 3.66112 14.6431 9.31668 8.9875C14.9722 3.33195 21.8667 0.50278 30 0.500002C38.1333 0.497224 45.0278 3.325 50.6833 8.98333C56.3389 14.6417 59.1667 21.5361 59.1667 29.6667C59.1667 33.6361 58.4375 37.3625 56.9792 40.8458C55.5208 44.3292 53.4722 47.3667 50.8333 49.9583V77.4167L30 71.1667L9.16668 77.425ZM30 54.6667C36.9445 54.6667 42.8472 52.2361 47.7083 47.375C52.5695 42.5139 55 36.6111 55 29.6667C55 22.7222 52.5695 16.8194 47.7083 11.9583C42.8472 7.09722 36.9445 4.66667 30 4.66667C23.0556 4.66667 17.1528 7.09722 12.2917 11.9583C7.43057 16.8194 5.00001 22.7222 5.00001 29.6667C5.00001 36.6111 7.43057 42.5139 12.2917 47.375C17.1528 52.2361 23.0556 54.6667 30 54.6667ZM13.3333 71.5167L30 66.8458L46.6667 71.5167V53.475C44.3445 55.1833 41.7625 56.5028 38.9208 57.4333C36.0847 58.3667 33.1111 58.8333 30 58.8333C26.8889 58.8333 23.9153 58.3681 21.0792 57.4375C18.2431 56.507 15.6611 55.1861 13.3333 53.475V71.5167Z" fill="#F59E01"/>
</svg>
