<svg width="84" height="76" viewBox="0 0 84 76" fill="none" xmlns="http://www.w3.org/2000/svg">
<path d="M70 49.4999C71.4583 45.9583 72.25 42.1666 72.25 37.9999C72.25 34.9999 71.7917 32.1249 71 29.4583C68.2917 30.0833 65.4584 30.4166 62.5 30.4166C56.4416 30.4231 50.4703 28.9729 45.0897 26.1884C39.7091 23.4038 35.0768 19.3664 31.5833 14.4166C27.8498 23.4614 20.7988 30.736 11.875 34.7499C11.7083 35.7916 11.7083 36.9166 11.7083 37.9999C11.7083 41.9779 12.4919 45.9169 14.0142 49.5921C15.5365 53.2672 17.7677 56.6065 20.5806 59.4194C26.2614 65.1002 33.9662 68.2916 42 68.2916C46.375 68.2916 50.5833 67.3333 54.375 65.6249C56.75 70.1666 57.8333 72.4166 57.75 72.4166C50.9167 74.7083 45.625 75.8333 42 75.8333C31.9167 75.8333 22.2917 71.8749 15.2083 64.7499C10.896 60.458 7.6928 55.1812 5.87501 49.3749H0.333344V30.4166H4.87501C6.25102 23.7187 9.41456 17.5183 14.03 12.4732C18.6454 7.42816 24.5405 3.72664 31.0897 1.76143C37.639 -0.20377 44.5981 -0.359344 51.2286 1.31122C57.8591 2.98178 63.9138 6.41616 68.75 11.2499C73.9991 16.4815 77.5804 23.1511 79.0417 30.4166H83.6667V49.3749H83.4167L68.5833 62.9999L46.5 60.4999V53.5416H66.625L70 49.4999ZM30.625 37.0416C31.875 37.0416 33.0833 37.5416 33.9583 38.4583C34.8377 39.3448 35.3311 40.5429 35.3311 41.7916C35.3311 43.0403 34.8377 44.2384 33.9583 45.1249C33.0833 45.9999 31.875 46.4999 30.625 46.4999C28 46.4999 25.875 44.4166 25.875 41.7916C25.875 39.1666 28 37.0416 30.625 37.0416ZM53.3333 37.0416C55.9583 37.0416 58.0417 39.1666 58.0417 41.7916C58.0417 44.4166 55.9583 46.4999 53.3333 46.4999C50.7083 46.4999 48.5833 44.4166 48.5833 41.7916C48.5833 40.5318 49.0838 39.3237 49.9746 38.4328C50.8654 37.5421 52.0736 37.0416 53.3333 37.0416Z" fill="#F59E01"/>
</svg>
