<svg width="93" height="68" viewBox="0 0 93 68" fill="none" xmlns="http://www.w3.org/2000/svg">
<path d="M0.125 15.25H40.75L43.875 21.5H3.25L0.125 15.25ZM4.29167 27.75H44.9167L48.0417 34H7.41667L4.29167 27.75ZM72 61.0834C75.4583 61.0834 78.25 58.2917 78.25 54.8334C78.25 51.375 75.4583 48.5834 72 48.5834C68.5417 48.5834 65.75 51.375 65.75 54.8334C65.75 58.2917 68.5417 61.0834 72 61.0834ZM78.25 23.5834H67.8333V34H86.4167L78.25 23.5834ZM30.3333 61.0834C33.7917 61.0834 36.5833 58.2917 36.5833 54.8334C36.5833 51.375 33.7917 48.5834 30.3333 48.5834C26.875 48.5834 24.0833 51.375 24.0833 54.8334C24.0833 58.2917 26.875 61.0834 30.3333 61.0834ZM80.3333 17.3334L92.8333 34V54.8334H84.5C84.5 61.75 78.9167 67.3334 72 67.3334C65.0833 67.3334 59.5 61.75 59.5 54.8334H42.8333C42.8333 61.75 37.2083 67.3334 30.3333 67.3334C23.4167 67.3334 17.8333 61.75 17.8333 54.8334H9.5V40.25H17.8333V46.5H21C23.2917 43.9584 26.625 42.3334 30.3333 42.3334C34.0417 42.3334 37.375 43.9584 39.6667 46.5H59.5V9.00002H9.5C9.5 4.37502 13.2083 0.666687 17.8333 0.666687H67.8333V17.3334H80.3333Z" fill="#F59E01"/>
</svg>
